<svg aria-hidden="true" style="width:0;height:0;position:absolute;overflow:hidden" xmlns="http://www.w3.org/2000/svg"><defs><symbol id="arrow-small" viewBox="0 0 144 32"><path d="M3.653 14.631a2 2 0 1 0 0 4v-4zm139.601 3.415a2 2 0 0 0 0-2.828L130.526 2.49a2 2 0 1 0-2.828 2.828l11.314 11.314-11.314 11.314a2 2 0 1 0 2.828 2.828l12.728-12.728zm-139.601.585H141.84v-4H3.653v4z"/></symbol><symbol id="arrow-big" viewBox="0 0 190 32"><path d="M2.625 13.938a2.133 2.133 0 0 0 0 4.266v-4.267zM187.6 17.579a2.134 2.134 0 0 0 0-3.017L174.023.986a2.134 2.134 0 0 0-3.017 3.017l12.068 12.068-12.068 12.068a2.134 2.134 0 0 0 3.017 3.017L187.6 17.579zm-184.975.625h183.467v-4.267H2.625v4.267z"/></symbol><symbol id="close" viewBox="0 0 32 32"><path d="M3.15 25.977 26.909 2.218a2.4 2.4 0 0 1 3.394 3.394L6.544 29.371a2.4 2.4 0 0 1-3.394-3.394z"/><path d="m6.544 2.219 23.759 23.759a2.4 2.4 0 0 1-3.394 3.394L3.15 5.613a2.4 2.4 0 0 1 3.394-3.394z"/></symbol><symbol id="tiktok" viewBox="0 0 29 32"><path d="M21.815 5.767a7.235 7.235 0 0 1-1.793-4.77h-5.227v20.976a4.385 4.385 0 0 1-4.381 4.229c-2.402 0-4.398-1.962-4.398-4.398 0-2.91 2.808-5.092 5.701-4.195v-5.345C5.881 11.486.772 16.019.772 21.805c0 5.633 4.669 9.642 9.625 9.642 5.312 0 9.625-4.313 9.625-9.642v-10.64a12.43 12.43 0 0 0 7.274 2.334V8.272s-3.18.152-5.481-2.504z"/></symbol><symbol id="facebook" viewBox="0 0 18 32"><path d="M13.996 6.053h2.78V1.212c-.48-.066-2.129-.214-4.05-.214-4.008 0-6.753 2.521-6.753 7.154v4.264H1.55v5.412h4.423v13.618h5.422V17.829h4.244l.674-5.412h-4.919V8.688c.001-1.564.422-2.635 2.602-2.635z"/></symbol><symbol id="instagram" viewBox="0 0 32 32"><path d="M16.73 9.455a6.77 6.77 0 0 0-6.251 4.177 6.767 6.767 0 1 0 13.017 2.589 6.77 6.77 0 0 0-6.767-6.766zm0 10.149c-.669 0-1.323-.199-1.88-.57s-.99-.9-1.246-1.518-.323-1.299-.193-1.955a3.38 3.38 0 0 1 2.658-2.658 3.382 3.382 0 1 1 .66 6.702zM23.497.997H9.964c-2.242.003-4.392.895-5.978 2.48s-2.478 3.735-2.48 5.978v13.533c.003 2.242.895 4.392 2.48 5.978s3.735 2.478 5.978 2.48h13.533a8.466 8.466 0 0 0 8.458-8.458V9.455c-.003-2.242-.895-4.392-2.48-5.978S25.74.999 23.497.997zm5.075 21.99a5.075 5.075 0 0 1-5.074 5.074H9.965a5.075 5.075 0 0 1-5.074-5.074V9.454A5.075 5.075 0 0 1 9.965 4.38h13.533a5.075 5.075 0 0 1 5.074 5.074v13.533zM26.316 8.891a2.254 2.254 0 1 1-4.51-.001 2.254 2.254 0 0 1 4.511.002z"/></symbol><symbol id="quotation-mark-1" viewBox="0 0 17 32"><path d="M11.732 5.764c-4.51 0-6.135 1.556-6.082 7.399a1.26 1.26 0 0 0 1.271 1.239h3.819c7.371 0 6.594.299 6.594 11.011 0 6.651-.995 6.495-8.267 6.495-6.644 0-8.947.687-8.947-4.384 0-1.543-.052-11.083 0-16.929C.182 3.595 4.236.04 12.705.04c1.624 0 1.624.993 1.624 2.587 0 2.189.303 3.137-2.598 3.137z"/></symbol><symbol id="quotation-mark-2" viewBox="0 0 15 32"><path d="M6.374 31.297H.26l4.36-15.843C3.167 14.798.26 12.413.26 8.117.26 6.575.26.78 7.172.78c.372 0 7.39.053 7.39 8.187 0 3.668-3.403 13.078-8.188 22.329z"/></symbol><symbol id="check" viewBox="0 0 35 32"><path d="M27 4 12 19l-7-7-5 5 12 12L32 9z"/></symbol><symbol id="outline-2" viewBox="0 0 160 32"><path d="M106.601.679C78.886 2.58 27.796 10.899 10.565 16.316c-14.588 4.586-13.551 10.179 2.389 12.887 16 2.718 61.669 3.14 81.597.755 12.552-1.503 32.161-4.799 38.905-6.541 7.537-1.946 14.46-5.208 16.9-7.963 2.562-2.891 2.785-6.429.505-8.011-2.086-1.449-3.067-1.34-1.675.186 4.429 4.85-3.971 10.863-20.171 14.438-16.501 3.643-39.599 6.451-58.909 7.164-14.535.536-45.986-.639-54.742-2.045-7.895-1.268-13.237-2.914-12.919-3.983.771-2.587 14.863-6.973 34.265-10.666 31.017-5.903 55.876-8.919 77.321-9.385 27.86-.604 43.18 2.018 43.18 7.389 0 1.782-3.284 5.308-5.985 6.427-2.748 1.138-2.452 2.734.379 2.045 4.145-1.009 7.664-5.03 7.669-8.762.003-2.504-3.059-5.551-6.594-6.561-7.692-2.199-33.418-3.88-46.081-3.011z"/></symbol><symbol id="outline-1" viewBox="0 0 123 32"><path d="M51.064.857c-1.043.106-5.406.524-9.695.928C11.331 4.613-5.311 12.286 1.61 20.113c2.946 3.333 10.428 5.921 22.924 7.93 25.956 4.174 54.986 4.872 71.699 1.724 13.318-2.508 24.015-7.921 25.705-13.006 2.359-7.098-10.422-12.537-33.667-14.325-3.78-.291-8.259-.741-9.954-1C75.149.952 54.449.512 51.064.857zm29.694 2.006c3.036.531 6.622 1.381 7.966 1.888 1.559.588 2.381.722 2.268.369-.097-.305-1.23-.915-2.516-1.357-2.928-1.005-1.718-1.043 4.06-.126 6.318 1.003 12.898 2.442 16.164 3.535 6.704 2.243 11.33 5.367 11.323 7.648-.007 2.512-3.563 5.822-8.831 8.221-14.997 6.828-41.027 8.327-74.823 4.306C3.25 23.407-6.438 16.711 11.18 9.938c9-3.46 22.144-5.897 42.963-7.966 6.654-.661 20.357-.202 26.614.891zm4.541-.13c-.157.156-.566.173-.908.037-.378-.15-.266-.262.287-.284.499-.02.779.091.621.247z"/></symbol><symbol id="heart" viewBox="0 0 23 32"><path d="M10.936 1.281c-1.809.816-3.729 3.223-3.729 4.675 0 .765-.21.898-1.416.898-2.884 0-5.343 2.121-5.656 4.879-.448 3.947 1.499 6.907 7.897 12.007 4.352 3.468 4.758 3.905 4.758 5.104 0 2.784.867 3.37 1.622 1.097.268-.807 1.784-4.095 3.367-7.306 3.097-6.28 4.183-9.708 4.183-13.201 0-3.903-1.535-6.358-4.985-7.974C14.574.335 13.13.293 10.935 1.282zm5.244 2.112c1.555.759 3.009 2.454 3.426 3.991.844 3.114-.48 7.875-4.294 15.442l-2.162 4.289-1.334-1.734c-.734-.954-2.026-2.256-2.872-2.894-5.089-3.836-7.321-6.822-7.321-9.796 0-2.564.445-3.261 2.601-4.079 1.499-.569 2.075-.61 3.33-.236.834.248 1.843.81 2.242 1.247s.877.796 1.062.796c.674 0 .314-1.247-.605-2.098C8.744 6.923 8.631 5.93 9.82 4.527c1.583-1.869 3.98-2.296 6.36-1.133z"/></symbol><symbol id="burger" viewBox="0 0 55 32"><path d="M3.429 24.558h48a3.429 3.429 0 1 1 0 6.858h-48a3.429 3.429 0 1 1 0-6.858zM3.429 12.279h48a3.429 3.429 0 1 1 0 6.858h-48a3.429 3.429 0 1 1 0-6.858zM3.429 0h48a3.429 3.429 0 1 1 0 6.858h-48a3.429 3.429 0 1 1 0-6.858z"/></symbol><symbol id="love" viewBox="0 0 39 32"><path d="M16.277.744c-1.535.902-4.005 4.207-7.138 9.553-2.509 4.281-3.172 5.117-5.974 7.538C.498 20.141.062 20.673.332 21.303c.425.994 2.109.454 3.972-1.271.963-.893 1.253-1.013.964-.399-.992 2.097-1.576 5.435-1.222 6.978.447 1.95 1.253 2.469 3.993 2.568 1.1.04 2.355.133 2.789.208.972.166 1.185-1.034.333-1.878-.334-.331-1.552-.605-2.707-.606-2.023-.003-2.104-.039-2.256-.992-.399-2.517 2.177-9.564 4.509-12.335 2.267-2.694 7.151-10.345 7.463-11.691.328-1.416-.537-1.937-1.892-1.141zm20.308 22.933c-.629.087-1.561.67-2.07 1.295s-1.204 1.261-1.543 1.412c-.786.351-.353 3.381.643 4.494.959 1.072 2.909 1.116 4.335.098 1.322-.945 1.361-.898-1.051-1.224-2.404-.324-2.523-.786-.361-1.404 2.007-.573 2.721-1.662 2.184-3.329-.458-1.424-.655-1.548-2.136-1.342zm-5.174-.295c-.352.433-1.358 1.704-2.235 2.823s-1.767 1.947-1.978 1.839c-.469-.241-.273-3.215.338-5.102.246-.76.261-1.588.035-1.841-.575-.642-1.851-.001-2.022 1.015-.078.465-.571 1.06-1.096 1.323-.93.466-.968.436-1.54-1.211-.323-.929-.763-1.733-.979-1.788s-.635-.394-.93-.756c-1.952-2.39-5.993 4.613-4.517 7.827.751 1.637.91 1.711 2.686 1.257.943-.241 1.736-.836 2.259-1.695.569-.935 1.188-1.358 2.106-1.443 1.257-.115 1.304-.066 1.416 1.47.139 1.911.427 2.476 1.572 3.072.558.291 1.271.167 1.987-.345 1.45-1.036 4.548-4.969 4.648-5.901.117-1.087-1.02-1.442-1.751-.545zm5.592 2.835c-.217.213-.64.349-.941.303-.336-.051-.331-.276.011-.583.64-.574 1.528-.307.93.28zm-16.344-3.199c-.159 2.021-1.033 3.923-1.833 3.988-.991.08-.969-1.076.07-3.654 1.174-2.912 1.976-3.064 1.762-.334z"/></symbol></defs></svg>