<svg aria-hidden="true" style="position: absolute; width: 0; height: 0; overflow: hidden;" version="1.1" xmlns="http://www.w3.org/2000/svg" xmlns:xlink="http://www.w3.org/1999/xlink">
<defs>
<symbol id="arrow-small" viewBox="0 0 144 32">
<path d="M3.653 14.631c-1.105 0-2 0.895-2 2s0.895 2 2 2v-4zM143.254 18.046c0.781-0.781 0.781-2.047 0-2.828l-12.728-12.728c-0.781-0.781-2.047-0.781-2.828 0s-0.781 2.047 0 2.828l11.314 11.314-11.314 11.314c-0.781 0.781-0.781 2.047 0 2.828s2.047 0.781 2.828 0l12.728-12.728zM3.653 18.631h138.187v-4h-138.187v4z"></path>
</symbol>
<symbol id="close" viewBox="0 0 32 32">
<path d="M3.15 25.977l23.759-23.759c0.937-0.937 2.457-0.937 3.394 0s0.937 2.457 0 3.394l-23.759 23.759c-0.937 0.937-2.457 0.937-3.394 0s-0.937-2.457 0-3.394z"></path>
<path d="M6.544 2.219l23.759 23.759c0.937 0.937 0.937 2.457 0 3.394s-2.457 0.937-3.394 0l-23.759-23.759c-0.937-0.937-0.937-2.457 0-3.394s2.457-0.937 3.394 0z"></path>
</symbol>
<symbol id="tiktok" viewBox="0 0 29 32">
<path d="M21.815 5.767c-1.156-1.32-1.794-3.015-1.793-4.77h-5.227v20.976c-0.040 1.135-0.52 2.21-1.337 2.999s-1.909 1.23-3.044 1.23c-2.402 0-4.398-1.962-4.398-4.398 0-2.91 2.808-5.092 5.701-4.195v-5.345c-5.836-0.778-10.945 3.755-10.945 9.541 0 5.633 4.669 9.642 9.625 9.642 5.312 0 9.625-4.313 9.625-9.642v-10.64c2.12 1.522 4.664 2.339 7.274 2.334v-5.227c0 0-3.18 0.152-5.481-2.504z"></path>
</symbol>
<symbol id="facebook" viewBox="0 0 18 32">
<path d="M13.996 6.053h2.78v-4.841c-0.48-0.066-2.129-0.214-4.050-0.214-4.008 0-6.753 2.521-6.753 7.154v4.264h-4.423v5.412h4.423v13.618h5.422v-13.617h4.244l0.674-5.412h-4.919v-3.729c0.001-1.564 0.422-2.635 2.602-2.635z"></path>
</symbol>
<symbol id="instagram" viewBox="0 0 32 32">
<path d="M16.73 9.455c-1.338 0-2.646 0.397-3.759 1.14s-1.98 1.8-2.492 3.037c-0.512 1.236-0.646 2.597-0.385 3.909s0.905 2.518 1.852 3.464c0.946 0.946 2.152 1.591 3.464 1.852s2.673 0.127 3.909-0.385 2.293-1.379 3.037-2.492c0.744-1.113 1.14-2.421 1.14-3.759-0.002-1.794-0.715-3.514-1.984-4.782s-2.988-1.982-4.783-1.984zM16.73 19.604c-0.669 0-1.323-0.199-1.88-0.57s-0.99-0.9-1.246-1.518c-0.256-0.618-0.323-1.299-0.193-1.955s0.453-1.259 0.926-1.732 1.076-0.795 1.732-0.926c0.656-0.131 1.336-0.064 1.955 0.193s1.147 0.69 1.518 1.246c0.372 0.556 0.57 1.21 0.57 1.88 0 0.897-0.356 1.758-0.991 2.392s-1.495 0.991-2.392 0.991zM23.497 0.997h-13.533c-2.242 0.003-4.392 0.895-5.978 2.48s-2.478 3.735-2.48 5.978v13.533c0.003 2.242 0.895 4.392 2.48 5.978s3.735 2.478 5.978 2.48h13.533c2.242-0.003 4.392-0.895 5.978-2.48s2.477-3.735 2.48-5.978v-13.533c-0.003-2.242-0.895-4.392-2.48-5.978s-3.735-2.478-5.978-2.48zM28.572 22.987c0 1.346-0.535 2.637-1.486 3.588s-2.242 1.486-3.588 1.486h-13.533c-1.346 0-2.637-0.535-3.588-1.486s-1.486-2.243-1.486-3.588v-13.533c0-1.346 0.535-2.637 1.486-3.588s2.242-1.486 3.588-1.486h13.533c1.346 0 2.637 0.535 3.588 1.486s1.486 2.242 1.486 3.588v13.533zM26.316 8.891c0 0.446-0.132 0.882-0.38 1.253s-0.6 0.66-1.012 0.831c-0.412 0.171-0.866 0.215-1.303 0.128s-0.839-0.302-1.155-0.617c-0.315-0.315-0.53-0.717-0.617-1.155s-0.042-0.891 0.128-1.303c0.171-0.412 0.46-0.764 0.831-1.012s0.807-0.38 1.253-0.38c0.598 0 1.172 0.238 1.595 0.661s0.661 0.997 0.661 1.595z"></path>
</symbol>
<symbol id="quotation-mark-1" viewBox="0 0 17 32">
<path d="M11.732 5.764c-4.51 0-6.135 1.556-6.082 7.399 0.006 0.693 0.579 1.239 1.271 1.239h3.819c7.371 0 6.594 0.299 6.594 11.011 0 6.651-0.995 6.495-8.267 6.495-6.644 0-8.947 0.687-8.947-4.384 0-1.543-0.052-11.083 0-16.929 0.062-7 4.116-10.555 12.585-10.555 1.624 0 1.624 0.993 1.624 2.587 0 2.189 0.303 3.137-2.598 3.137z"></path>
</symbol>
<symbol id="quotation-mark-2" viewBox="0 0 15 32">
<path d="M6.374 31.297h-6.114l4.36-15.843c-1.453-0.656-4.36-3.041-4.36-7.337 0-1.542 0-7.337 6.912-7.337 0.372 0 7.39 0.053 7.39 8.187 0 3.668-3.403 13.078-8.188 22.329z"></path>
</symbol>
<symbol id="check" viewBox="0 0 35 32">
<path stroke-linejoin="miter" stroke-linecap="butt" stroke-miterlimit="4" stroke-width="9.6" d="M4.679 14.273l9.853 8.968 16.065-20.127"></path>
</symbol>
<symbol id="outline-2" viewBox="0 0 160 32">
<path d="M106.601 0.679c-27.715 1.901-78.805 10.22-96.036 15.637-14.588 4.586-13.551 10.179 2.389 12.887 16 2.718 61.669 3.14 81.597 0.755 12.552-1.503 32.161-4.799 38.905-6.541 7.537-1.946 14.46-5.208 16.9-7.963 2.562-2.891 2.785-6.429 0.505-8.011-2.086-1.449-3.067-1.34-1.675 0.186 4.429 4.85-3.971 10.863-20.171 14.438-16.501 3.643-39.599 6.451-58.909 7.164-14.535 0.536-45.986-0.639-54.742-2.045-7.895-1.268-13.237-2.914-12.919-3.983 0.771-2.587 14.863-6.973 34.265-10.666 31.017-5.903 55.876-8.919 77.321-9.385 27.86-0.604 43.18 2.018 43.18 7.389 0 1.782-3.284 5.308-5.985 6.427-2.748 1.138-2.452 2.734 0.379 2.045 4.145-1.009 7.664-5.030 7.669-8.762 0.003-2.504-3.059-5.551-6.594-6.561-7.692-2.199-33.418-3.88-46.081-3.011z"></path>
</symbol>
<symbol id="outline-1" viewBox="0 0 123 32">
<path d="M51.064 0.857c-1.043 0.106-5.406 0.524-9.695 0.928-30.038 2.828-46.68 10.501-39.759 18.328 2.946 3.333 10.428 5.921 22.924 7.93 25.956 4.174 54.986 4.872 71.699 1.724 13.318-2.508 24.015-7.921 25.705-13.006 2.359-7.098-10.422-12.537-33.667-14.325-3.78-0.291-8.259-0.741-9.954-1-3.168-0.484-23.868-0.924-27.253-0.579zM80.758 2.863c3.036 0.531 6.622 1.381 7.966 1.888 1.559 0.588 2.381 0.722 2.268 0.369-0.097-0.305-1.23-0.915-2.516-1.357-2.928-1.005-1.718-1.043 4.060-0.126 6.318 1.003 12.898 2.442 16.164 3.535 6.704 2.243 11.33 5.367 11.323 7.648-0.007 2.512-3.563 5.822-8.831 8.221-14.997 6.828-41.027 8.327-74.823 4.306-33.119-3.94-42.807-10.636-25.189-17.409 9-3.46 22.144-5.897 42.963-7.966 6.654-0.661 20.357-0.202 26.614 0.891zM85.299 2.733c-0.157 0.156-0.566 0.173-0.908 0.037-0.378-0.15-0.266-0.262 0.287-0.284 0.499-0.020 0.779 0.091 0.621 0.247z"></path>
</symbol>
<symbol id="heart" viewBox="0 0 23 32">
<path d="M10.936 1.281c-1.809 0.816-3.729 3.223-3.729 4.675 0 0.765-0.21 0.898-1.416 0.898-2.884 0-5.343 2.121-5.656 4.879-0.448 3.947 1.499 6.907 7.897 12.007 4.352 3.468 4.758 3.905 4.758 5.104 0 2.784 0.867 3.37 1.622 1.097 0.268-0.807 1.784-4.095 3.367-7.306 3.097-6.28 4.183-9.708 4.183-13.201 0-3.903-1.535-6.358-4.985-7.974-2.403-1.125-3.847-1.167-6.042-0.178zM16.18 3.393c1.555 0.759 3.009 2.454 3.426 3.991 0.844 3.114-0.48 7.875-4.294 15.442l-2.162 4.289-1.334-1.734c-0.734-0.954-2.026-2.256-2.872-2.894-5.089-3.836-7.321-6.822-7.321-9.796 0-2.564 0.445-3.261 2.601-4.079 1.499-0.569 2.075-0.61 3.33-0.236 0.834 0.248 1.843 0.81 2.242 1.247s0.877 0.796 1.062 0.796c0.674 0 0.314-1.247-0.605-2.098-1.509-1.398-1.622-2.391-0.433-3.794 1.583-1.869 3.98-2.296 6.36-1.133z"></path>
</symbol>
<symbol id="burger" viewBox="0 0 55 32">
<path d="M3.429 24.558h48c1.894 0 3.429 1.535 3.429 3.429s-1.535 3.429-3.429 3.429h-48c-1.894 0-3.429-1.535-3.429-3.429s1.535-3.429 3.429-3.429z"></path>
<path d="M3.429 12.279h48c1.894 0 3.429 1.535 3.429 3.429s-1.535 3.429-3.429 3.429h-48c-1.894 0-3.429-1.535-3.429-3.429s1.535-3.429 3.429-3.429z"></path>
<path d="M3.429 0h48c1.894 0 3.429 1.535 3.429 3.429s-1.535 3.429-3.429 3.429h-48c-1.894 0-3.429-1.535-3.429-3.429s1.535-3.429 3.429-3.429z"></path>
</symbol>
</defs>
</svg>
