<svg width="54" height="23" viewBox="0 0 54 23" fill="none" xmlns="http://www.w3.org/2000/svg">
<path d="M2.271 10.105C1.44257 10.105 0.770996 10.7766 0.770996 11.605C0.770996 12.4334 1.44257 13.105 2.271 13.105L2.271 10.105ZM53.3307 12.6656C53.9165 12.0799 53.9165 11.1301 53.3307 10.5443L43.7847 0.998379C43.199 0.412592 42.2492 0.412592 41.6634 0.998379C41.0776 1.58417 41.0776 2.53391 41.6634 3.1197L50.1487 11.605L41.6634 20.0903C41.0776 20.676 41.0776 21.6258 41.6634 22.2116C42.2492 22.7974 43.199 22.7974 43.7847 22.2116L53.3307 12.6656ZM2.271 13.105L52.27 13.105L52.27 10.105L2.271 10.105L2.271 13.105Z" fill="#F4F4F4"/>
</svg>
