<svg width="41" height="8" viewBox="0 0 41 8" fill="none" xmlns="http://www.w3.org/2000/svg">
<path d="M0.609375 3.67383C0.333233 3.67383 0.109375 3.89769 0.109375 4.17383C0.109375 4.44997 0.333233 4.67383 0.609375 4.67383L0.609375 3.67383ZM40.8311 4.52739C41.0264 4.33212 41.0264 4.01554 40.8311 3.82028L37.6491 0.638297C37.4539 0.443035 37.1373 0.443035 36.942 0.638297C36.7467 0.83356 36.7467 1.15014 36.942 1.3454L39.7704 4.17383L36.942 7.00226C36.7467 7.19752 36.7467 7.5141 36.942 7.70937C37.1373 7.90463 37.4538 7.90463 37.6491 7.70937L40.8311 4.52739ZM0.609375 4.67383L40.4775 4.67383L40.4775 3.67383L0.609375 3.67383L0.609375 4.67383Z" fill="#F4F4F4"/>
</svg>
